<svg width="109" height="109" viewBox="0 0 109 109" fill="none" xmlns="http://www.w3.org/2000/svg">
<g clip-path="url(#clip0_3_16027)">
<path fill-rule="evenodd" clip-rule="evenodd" d="M36.5516 2.66464C36.627 1.53322 37.5667 0.654053 38.7007 0.654053H43.0179C44.2638 0.654053 45.2499 1.708 45.167 2.95115L44.6397 10.8607C44.6004 11.4506 45.0445 11.9615 45.6338 12.0099C48.4819 12.2436 50.89 12.5227 52.8697 12.8C57.059 13.387 59.8849 17.0321 59.8849 21.2623C59.8849 22.6216 59.015 23.8286 57.7254 24.2584L56.2477 24.751C56.004 24.8322 55.8315 25.0501 55.8085 25.306L55.2502 31.5024C55.1372 32.7568 54.1613 33.7418 52.9461 34.0722C46.1041 35.9327 41.0388 42.1899 41.0388 49.6629V51.8786C41.0388 53.6149 40.7589 55.3398 40.2098 56.987L30.8875 84.9539C30.5192 86.0585 29.4816 86.8055 28.3174 86.7743C24.3744 86.6674 20.981 86.3179 18.2273 85.9052C13.1974 85.1523 9.78118 80.8577 9.32077 75.7929L4.731 25.3056C4.70777 25.05 4.53538 24.8323 4.29184 24.7511L2.8138 24.2584C1.52417 23.8286 0.654297 22.6216 0.654297 21.2623C0.654297 17.0321 3.48021 13.387 7.66949 12.8C12.5456 12.1169 20.0203 11.4232 30.2696 11.4232C31.8918 11.4232 33.4445 11.4406 34.9284 11.4725C35.5063 11.485 35.9931 11.0418 36.0316 10.465L36.5516 2.66464ZM14.2962 32.8684C13.8306 32.7783 13.4851 32.3891 13.4422 31.9169L12.9378 26.3683C12.876 25.6884 13.4522 25.1232 14.1309 25.1959C17.839 25.5936 24.7307 26.2309 30.808 26.2309C36.327 26.2309 42.5361 25.7029 46.4063 25.3083C47.0826 25.2393 47.6541 25.8029 47.5931 26.4799L47.0853 32.116C47.0421 32.5959 46.6866 32.9893 46.2121 33.0725C42.5958 33.7067 37.4232 34.3078 30.8081 34.3078C23.4846 34.3078 17.9292 33.5711 14.2962 32.8684Z" fill="#EFEFEF"/>
<path fill-rule="evenodd" clip-rule="evenodd" d="M105.174 56.7241C92.6305 44.6525 76.4585 39.903 60.927 38.4324C53.4701 37.7264 46.5797 42.4685 46.5797 49.9589V55.9988L31.3617 101.653C30.8383 103.223 31.4417 104.949 32.8295 105.851C33.8699 106.527 35.1833 106.625 36.3132 106.113L42.5844 103.265V104.524C42.5844 106.635 44.2957 108.346 46.4065 108.346C47.7781 108.346 49.0444 107.611 49.725 106.42L50.2747 105.458C53.1287 100.464 57.4821 96.4932 62.7179 94.1112V94.3968C62.7179 96.5412 64.4562 98.2794 66.6004 98.2794C67.9421 98.2794 69.1888 97.5861 69.8974 96.4467L70.4456 95.5653C73.2902 90.9916 77.3618 87.3089 82.197 84.9363L101.61 75.4112C105.733 73.3874 108.346 69.195 108.346 64.6022C108.346 61.6534 107.299 58.7689 105.174 56.7241ZM61.0404 61.3256C64.7935 59.8325 67.6643 57.0511 66.4704 54.5474C65.2765 52.0437 61.2661 51.2245 57.5129 52.7177C48.7222 56.2149 53.0436 64.507 61.0404 61.3256ZM74.7421 71.0078C75.3118 74.4636 71.4144 77.1406 66.9343 77.9647C57.3887 79.7196 55.1054 68.172 65.5989 66.2421C70.079 65.4181 74.1724 67.5518 74.7421 71.0078ZM52.4553 82.2193C53.3081 84.222 51.2576 86.4471 48.5768 87.6417C42.8649 90.1865 39.7781 83.5535 46.0572 80.7551C48.738 79.5612 51.6026 80.2166 52.4553 82.2193Z" fill="#EFEFEF"/>
</g>
<defs>
<clipPath id="clip0_3_16027">
<rect width="109" height="109" fill="white"/>
</clipPath>
</defs>
</svg>
